<svg xmlns="http://www.w3.org/2000/svg" width="600" height="840" viewBox="0 0 600 840"><title>蔡文姬 · 兜帽披帛、斜抱琵琶、坐姿</title><defs><linearGradient id="robe" x2=".8" y2="1"><stop stop-color="#050707"/><stop offset=".58" stop-color="#1b212d"/><stop offset="1" stop-color="#070909"/></linearGradient><linearGradient id="sleeve" x2="1" y2="1"><stop stop-color="#090b0b"/><stop offset=".72" stop-color="#3c4964"/><stop offset="1" stop-color="#202420"/></linearGradient><linearGradient id="fold" x2=".8" y2="1"><stop stop-color="#090c0b"/><stop offset=".62" stop-color="#242c3c"/><stop offset="1" stop-color="#080b0a"/></linearGradient><linearGradient id="inner" x2="1" y2="1"><stop stop-color="#343f56"/><stop offset="1" stop-color="#0d100e"/></linearGradient><linearGradient id="face" x2="1" y2="1"><stop stop-color="#f8cfca"/><stop offset="1" stop-color="#e9b1ae"/></linearGradient><linearGradient id="gold" x2=".7" y2="1"><stop stop-color="#c4a879"/><stop offset="1" stop-color="#806b49"/></linearGradient></defs><g transform="translate(0 8) scale(1 1.22)"><path d="M224 292L333 282L391 487Q409 549 477 615Q421 660 365 650Q243 671 104 649Q141 584 157 490Z" fill="url(#robe)" /><path d="M230 284L170 334L121 507L197 528L273 354Z" fill="url(#sleeve)" /><path d="M320 287L409 352L452 490L374 525L291 355Z" fill="url(#fold)" /><path d="M211 304L191 622L228 649L270 389L307 292Z" fill="url(#inner)" /><g transform="translate(276 233) rotate(-12) scale(.8 .76)"><path d="M-14 32H17L28 85L-29 104Z" fill="#dbada7" /><path d="M-31-34L13-44L32-29L43-7L32 1L30 21L12 45L-7 51L-30 24Z" fill="url(#face)" /><path d="M-57 28Q-65-46-28-82Q5-103 42-63L57 44L34 32L23-28L-12-43L-35-15L-27 43Z" fill="#25324c" /></g><path d="M359 299L389 156L405 158L387 311Q443 365 408 446Q365 505 308 454Q261 404 314 348Z" fill="#b78761" /><path d="M352 321Q417 359 389 424Q359 465 327 432Q299 397 337 350Z" fill="#d7af7d" /><path d="M383 170L343 432M390 172L350 434M397 174L358 432" fill="none" stroke="#634933" stroke-width="2" stroke-linecap="round" stroke-linejoin="round"/><path d="M311 385L348 367L362 380L347 398L320 411Z" fill="#efbfbb" /><path d="M367 288L387 273L399 280L395 302L374 312Z" fill="#efbfbb" /><path d="M367 149L416 151L411 173L364 171Z" fill="url(#gold)" /></g></svg>