<svg xmlns="http://www.w3.org/2000/svg" width="600" height="840" viewBox="0 0 600 840"><title>曹操 · 扬起的披风、横剑、高冠</title><defs><linearGradient id="robe" x2=".8" y2="1"><stop stop-color="#050707"/><stop offset=".58" stop-color="#2b0c11"/><stop offset="1" stop-color="#070909"/></linearGradient><linearGradient id="sleeve" x2="1" y2="1"><stop stop-color="#090b0b"/><stop offset=".72" stop-color="#5f1b26"/><stop offset="1" stop-color="#202420"/></linearGradient><linearGradient id="fold" x2=".8" y2="1"><stop stop-color="#090c0b"/><stop offset=".62" stop-color="#391017"/><stop offset="1" stop-color="#080b0a"/></linearGradient><linearGradient id="inner" x2="1" y2="1"><stop stop-color="#531721"/><stop offset="1" stop-color="#0d100e"/></linearGradient><linearGradient id="face" x2="1" y2="1"><stop stop-color="#f8cfca"/><stop offset="1" stop-color="#e9b1ae"/></linearGradient><linearGradient id="gold" x2=".7" y2="1"><stop stop-color="#c4a879"/><stop offset="1" stop-color="#806b49"/></linearGradient></defs><g transform="translate(0 8) scale(1 1.22)"><path d="M267 284Q380 232 512 383Q467 461 503 633Q369 592 304 636L224 418Z" fill="url(#robe)" /><path d="M228 278L331 291L392 486L345 647L174 649L138 489Z" fill="url(#sleeve)" /><path d="M237 294L137 381L87 466L147 496L280 386Z" fill="url(#fold)" /><path d="M316 302L402 326L459 408L410 446L306 364Z" fill="url(#inner)" /><path d="M245 287L276 343L307 292L288 459L249 451Z" fill="#acb4b4" /><g transform="translate(276 218) rotate(5) scale(.8 .76)"><path d="M-14 32H17L28 85L-29 104Z" fill="#dbada7" /><path d="M-31-34L13-44L32-29L43-7L32 1L30 21L12 45L-7 51L-30 24Z" fill="url(#face)" /><path d="M-37-35L-45-86L28-90L37-32Z" fill="#070909" /><path d="M-31-82L-21-35H-5L-8-86Z" fill="#263746" /></g><g transform="translate(351 451) rotate(79)"><path d="M-5 0H5V236L0 257L-5 236Z" fill="#b2c4c9" /><path d="M0 3V239H5V3Z" fill="#e3e9dc" /><path d="M-29-7H29V4H-29Z" fill="url(#gold)" /><path d="M-6-57H6V-7H-6Z" fill="#070909" /><ellipse cx="0" cy="-60" rx="9" ry="6" fill="#cba264"/></g><path d="M362 415L384 421L394 447L369 454L354 437Z" fill="#efbfbb" /><path d="M203 471L348 454L354 477L198 496Z" fill="url(#gold)" /><path d="M287 244L302 271L278 307L273 259Z" fill="#070909" /></g></svg>