<svg xmlns="http://www.w3.org/2000/svg" width="600" height="840" viewBox="0 0 600 840"><title>吕雉 · 叠层冠、捧印、黑红交叠长袍</title><defs><linearGradient id="robe" x2=".8" y2="1"><stop stop-color="#050707"/><stop offset=".58" stop-color="#1b121b"/><stop offset="1" stop-color="#070909"/></linearGradient><linearGradient id="sleeve" x2="1" y2="1"><stop stop-color="#090b0b"/><stop offset=".72" stop-color="#3c283b"/><stop offset="1" stop-color="#202420"/></linearGradient><linearGradient id="fold" x2=".8" y2="1"><stop stop-color="#090c0b"/><stop offset=".62" stop-color="#241823"/><stop offset="1" stop-color="#080b0a"/></linearGradient><linearGradient id="inner" x2="1" y2="1"><stop stop-color="#342233"/><stop offset="1" stop-color="#0d100e"/></linearGradient><linearGradient id="face" x2="1" y2="1"><stop stop-color="#f8cfca"/><stop offset="1" stop-color="#e9b1ae"/></linearGradient><linearGradient id="gold" x2=".7" y2="1"><stop stop-color="#c4a879"/><stop offset="1" stop-color="#806b49"/></linearGradient></defs><g transform="translate(0 8) scale(1 1.22)"><path d="M214 280L356 280Q414 420 382 486Q409 591 477 651Q367 675 286 654Q209 674 103 650Q154 548 155 419Z" fill="url(#robe)" /><path d="M220 282L131 348L73 501L166 545L266 350Z" fill="url(#sleeve)" /><path d="M349 282L445 353L500 508L399 545L298 345Z" fill="url(#fold)" /><path d="M246 282L282 351L320 282L339 651H217Z" fill="url(#inner)" /><g transform="translate(282 231) rotate(0) scale(.8 .76)"><path d="M-14 32H17L28 85L-29 104Z" fill="#dbada7" /><path d="M-31-34L13-44L32-29L43-7L32 1L30 21L12 45L-7 51L-30 24Z" fill="url(#face)" /><path d="M-37-29Q-54-74 0-79Q48-73 37-29Z" fill="#070909" /><path d="M-48-75V-88H48V-75M-33-93V-109H33V-93M-16-114V-132H16V-114Z" fill="url(#gold)" /><ellipse cx="0" cy="-65" rx="11" ry="9" fill="#a74a4b"/></g><path d="M210 304L281 366L352 301L344 325L282 391L221 327Z" fill="url(#gold)" /><path d="M243 426L312 424L323 464L233 468Z" fill="url(#gold)" /><ellipse cx="279" cy="419" rx="18" ry="15" fill="#b99357"/><path d="M193 447L232 434L250 445L245 468L220 481L193 465Z" fill="#efbfbb" /><path d="M343 438L313 435L301 449L316 470L345 466Z" fill="#efbfbb" /><path d="M176 526L143 618M390 531L417 619" fill="none" stroke="#91666c" stroke-width="4" stroke-linecap="round" stroke-linejoin="round"/></g></svg>