<svg xmlns="http://www.w3.org/2000/svg" width="600" height="840" viewBox="0 0 600 840"><title>王安石 · 方正头巾、展开的文书、竹节</title><defs><linearGradient id="robe" x2=".8" y2="1"><stop stop-color="#050707"/><stop offset=".58" stop-color="#19251c"/><stop offset="1" stop-color="#070909"/></linearGradient><linearGradient id="sleeve" x2="1" y2="1"><stop stop-color="#090b0b"/><stop offset=".72" stop-color="#37513e"/><stop offset="1" stop-color="#202420"/></linearGradient><linearGradient id="fold" x2=".8" y2="1"><stop stop-color="#090c0b"/><stop offset=".62" stop-color="#213125"/><stop offset="1" stop-color="#080b0a"/></linearGradient><linearGradient id="inner" x2="1" y2="1"><stop stop-color="#2f4636"/><stop offset="1" stop-color="#0d100e"/></linearGradient><linearGradient id="face" x2="1" y2="1"><stop stop-color="#f8cfca"/><stop offset="1" stop-color="#e9b1ae"/></linearGradient><linearGradient id="gold" x2=".7" y2="1"><stop stop-color="#c4a879"/><stop offset="1" stop-color="#806b49"/></linearGradient></defs><g transform="translate(0 8) scale(1 1.22)"><path d="M222 283L345 277Q389 399 365 488Q385 607 444 651Q363 670 286 651Q211 668 131 651Q169 536 166 417Z" fill="url(#robe)" /><path d="M226 291L135 361L114 490L194 518L274 355Z" fill="url(#sleeve)" /><path d="M336 285L433 365L458 490L378 513L300 356Z" fill="url(#fold)" /><path d="M252 280L280 334L313 280L297 639H245Z" fill="url(#inner)" /><g transform="translate(282 221) rotate(-5) scale(.8 .76)"><path d="M-14 32H17L28 85L-29 104Z" fill="#dbada7" /><path d="M-31-34L13-44L32-29L43-7L32 1L30 21L12 45L-7 51L-30 24Z" fill="url(#face)" /><path d="M-37-35L-45-86L28-90L37-32Z" fill="#070909" /><path d="M-31-82L-21-35H-5L-8-86Z" fill="#263746" /></g><g transform="translate(219 385) rotate(4)"><path d="M0 0H120V69H0Z" fill="#eadabb" /><path d="M3 0V69M117 0V69" fill="none" stroke="#927344" stroke-width="7"/><path d="M22 19H94M22 31H84M22 43H99" fill="none" stroke="#b29f80" stroke-width="2" stroke-linecap="round" stroke-linejoin="round"/></g><g transform="translate(316 392) rotate(-2)"><path d="M0 0H120V69H0Z" fill="#eadabb" /><path d="M3 0V69M117 0V69" fill="none" stroke="#927344" stroke-width="7"/><path d="M22 19H94M22 31H84M22 43H99" fill="none" stroke="#b29f80" stroke-width="2" stroke-linecap="round" stroke-linejoin="round"/></g><path d="M192 407L219 397L231 414L217 435L195 438Z" fill="#efbfbb" /><path d="M412 412L440 422L432 443L407 436Z" fill="#efbfbb" /><path d="M167 325L121 197M157 293L117 258M143 258L153 215" fill="none" stroke="#8f9e73" stroke-width="5" stroke-linecap="round" stroke-linejoin="round"/></g></svg>