<svg xmlns="http://www.w3.org/2000/svg" width="600" height="840" viewBox="0 0 600 840"><title>武则天 · 凤形高冠、团形肩袖、金色权杖</title><defs><linearGradient id="robe" x2=".8" y2="1"><stop stop-color="#050707"/><stop offset=".58" stop-color="#300e1a"/><stop offset="1" stop-color="#070909"/></linearGradient><linearGradient id="sleeve" x2="1" y2="1"><stop stop-color="#090b0b"/><stop offset=".72" stop-color="#691e3a"/><stop offset="1" stop-color="#202420"/></linearGradient><linearGradient id="fold" x2=".8" y2="1"><stop stop-color="#090c0b"/><stop offset=".62" stop-color="#3f1223"/><stop offset="1" stop-color="#080b0a"/></linearGradient><linearGradient id="inner" x2="1" y2="1"><stop stop-color="#5b1a32"/><stop offset="1" stop-color="#0d100e"/></linearGradient><linearGradient id="face" x2="1" y2="1"><stop stop-color="#f8cfca"/><stop offset="1" stop-color="#e9b1ae"/></linearGradient><linearGradient id="gold" x2=".7" y2="1"><stop stop-color="#c4a879"/><stop offset="1" stop-color="#806b49"/></linearGradient></defs><g transform="translate(0 8) scale(1 1.22)"><path d="M210 281L378 277Q413 394 398 481Q413 588 493 651Q374 671 293 650Q202 673 95 652Q148 562 140 415Z" fill="url(#robe)" /><path d="M215 287Q122 265 62 383L131 519L256 391Z" fill="url(#sleeve)" /><path d="M365 283Q471 281 525 403L434 527L312 381Z" fill="url(#fold)" /><path d="M250 281L291 360L336 277L355 650H220Z" fill="url(#inner)" /><g transform="translate(292 223) rotate(0) scale(.8 .76)"><path d="M-14 32H17L28 85L-29 104Z" fill="#dbada7" /><path d="M-31-34L13-44L32-29L43-7L32 1L30 21L12 45L-7 51L-30 24Z" fill="url(#face)" /><path d="M-39-24Q-57-60-31-79L0-54L31-79Q57-59 39-24L23-41H-20Z" fill="#070909" /><path d="M-45-61Q-81-54-97-83Q-71-73-48-97L-54-119Q-22-111-17-86L0-62L17-86Q22-111 54-119L48-97Q71-73 97-83Q81-54 45-61L25-45H-25Z" fill="url(#gold)" /><path d="M-10-61L-8-100L0-119L8-100L10-61Z" fill="url(#gold)" /><path d="M-61-64L-63-25M61-64L63-25" fill="none" stroke="#ddb67b" stroke-width="3" stroke-linecap="round" stroke-linejoin="round"/><ellipse cx="-63" cy="-21" rx="5" ry="7" fill="url(#gold)"/><ellipse cx="63" cy="-21" rx="5" ry="7" fill="url(#gold)"/><ellipse cx="0" cy="-76" rx="13" ry="11" fill="#d97762"/></g><path d="M238 309L291 357L346 307L334 348L291 389L250 350Z" fill="url(#gold)" /><path d="M192 474L386 465L397 499L184 510Z" fill="url(#gold)" /><path d="M433 293L425 621" fill="none" stroke="#b38c51" stroke-width="10" stroke-linecap="round" stroke-linejoin="round"/><ellipse cx="434" cy="277" rx="24" ry="23" fill="url(#gold)"/><ellipse cx="434" cy="277" rx="10" ry="10" fill="#bb7060"/><path d="M402 420L434 407L446 420L439 440L410 445Z" fill="#efbfbb" /><path d="M181 452L220 463L228 484L202 494L176 476Z" fill="#efbfbb" /></g></svg>