<svg xmlns="http://www.w3.org/2000/svg" width="600" height="840" viewBox="0 0 600 840"><title>张居正 · 乌纱长翅、玉带、笏板</title><defs><linearGradient id="robe" x2=".8" y2="1"><stop stop-color="#050707"/><stop offset=".58" stop-color="#22151e"/><stop offset="1" stop-color="#070909"/></linearGradient><linearGradient id="sleeve" x2="1" y2="1"><stop stop-color="#090b0b"/><stop offset=".72" stop-color="#4b2f42"/><stop offset="1" stop-color="#202420"/></linearGradient><linearGradient id="fold" x2=".8" y2="1"><stop stop-color="#090c0b"/><stop offset=".62" stop-color="#2d1c28"/><stop offset="1" stop-color="#080b0a"/></linearGradient><linearGradient id="inner" x2="1" y2="1"><stop stop-color="#412939"/><stop offset="1" stop-color="#0d100e"/></linearGradient><linearGradient id="face" x2="1" y2="1"><stop stop-color="#f8cfca"/><stop offset="1" stop-color="#e9b1ae"/></linearGradient><linearGradient id="gold" x2=".7" y2="1"><stop stop-color="#c4a879"/><stop offset="1" stop-color="#806b49"/></linearGradient></defs><g transform="translate(0 8) scale(1 1.22)"><path d="M219 272L349 272Q401 425 380 498Q391 587 452 650Q355 669 297 652Q223 669 137 650Q166 538 162 438Z" fill="url(#robe)" /><path d="M225 285L112 396L154 527L268 376Z" fill="url(#sleeve)" /><path d="M343 281L449 389L447 506L351 520L298 357Z" fill="url(#fold)" /><path d="M248 273L286 346L320 273L302 447H251Z" fill="url(#inner)" /><g transform="translate(285 211) rotate(0) scale(.8 .76)"><path d="M-14 32H17L28 85L-29 104Z" fill="#dbada7" /><path d="M-31-34L13-44L32-29L43-7L32 1L30 21L12 45L-7 51L-30 24Z" fill="url(#face)" /><path d="M-37-33L-33-79H33L37-33Z" fill="#070909" /><path d="M-34-55L-122-74L-126-62L-36-39M34-55L121-74L124-62L36-39Z" fill="#070909" /></g><path d="M184 449L368 444L376 475L179 481Z" fill="url(#gold)" /><path d="M199 449H217V470H199Z" fill="#bcdbcc" /><path d="M239 449H257V470H239Z" fill="#bcdbcc" /><path d="M279 449H297V470H279Z" fill="#bcdbcc" /><path d="M319 449H337V470H319Z" fill="#bcdbcc" /><path d="M359 449H377V470H359Z" fill="#bcdbcc" /><path d="M296 321L330 315L340 433L306 440Z" fill="#e3d5b8" /><path d="M269 407L306 389L322 397L314 415L280 428Z" fill="#efbfbb" /><path d="M276 247L296 247L293 298L271 274Z" fill="#070909" /></g></svg>